<?xml version="1.0" encoding="UTF-8" standalone="no"?>
<svg
   xmlns:dc="http://purl.org/dc/elements/1.1/"
   xmlns:cc="http://creativecommons.org/ns#"
   xmlns:rdf="http://www.w3.org/1999/02/22-rdf-syntax-ns#"
   xmlns:svg="http://www.w3.org/2000/svg"
   xmlns="http://www.w3.org/2000/svg"
   xmlns:sodipodi="http://sodipodi.sourceforge.net/DTD/sodipodi-0.dtd"
   xmlns:inkscape="http://www.inkscape.org/namespaces/inkscape"
   version="1.1"
   width="26.4"
   height="26.4"
   id="svg62"
   sodipodi:docname="WebAssembly_Logo_Inverted_Small.svg"
   inkscape:version="1.0.2 (e86c870879, 2021-01-15)">
  <metadata
     id="metadata68">
    <rdf:RDF>
      <cc:Work
         rdf:about="">
        <dc:format>image/svg+xml</dc:format>
        <dc:type
           rdf:resource="http://purl.org/dc/dcmitype/StillImage" />
        <dc:title></dc:title>
      </cc:Work>
    </rdf:RDF>
  </metadata>
  <defs
     id="defs66" />
  <sodipodi:namedview
     pagecolor="#ffffff"
     bordercolor="#666666"
     borderopacity="1"
     objecttolerance="10"
     gridtolerance="10"
     guidetolerance="10"
     inkscape:pageopacity="0"
     inkscape:pageshadow="2"
     inkscape:window-width="1920"
     inkscape:window-height="1016"
     id="namedview64"
     showgrid="false"
     inkscape:zoom="5.2423758"
     inkscape:cx="14.232774"
     inkscape:cy="30.872444"
     inkscape:window-x="0"
     inkscape:window-y="0"
     inkscape:window-maximized="1"
     inkscape:current-layer="svg62"
     inkscape:document-rotation="0" />
  <!-- Block -->
  <path
     id="path58"
     d="M 0,0 V 26.4 H 26.4 V 0 H 16.219608 v 0.14238664 c 0,1.67199996 -1.355369,3.02693776 -3.026938,3.02693776 -1.672,0 -3.026938,-1.3553691 -3.026938,-3.02693776 V 0 Z m 6.132399,14.227122 h 1.7496702 l 1.1944476,6.361397 h 0.02157 l 1.4355772,-6.361397 h 1.636688 l 1.296645,6.439499 h 0.02545 l 1.361431,-6.439499 h 1.71597 L 14.340104,23.57451 H 12.60383 l -1.285945,-6.361481 h -0.03362 L 9.9077514,23.57451 H 8.1391236 Z m 12.410133,0 h 2.758172 l 2.739216,9.347388 h -1.804855 l -0.595666,-2.080109 h -3.142111 l -0.459849,2.080109 h -1.757844 z m 1.049954,2.303967 -0.763074,3.429412 h 2.375161 l -0.876142,-3.429412 z"
     style="fill:#ffffff;fill-opacity:1;stroke-width:0.0431372" />
  <!-- Letters -->
</svg>
