<?xml version="1.0" encoding="UTF-8" standalone="no"?>
<svg
   xmlns:dc="http://purl.org/dc/elements/1.1/"
   xmlns:cc="http://creativecommons.org/ns#"
   xmlns:rdf="http://www.w3.org/1999/02/22-rdf-syntax-ns#"
   xmlns:svg="http://www.w3.org/2000/svg"
   xmlns="http://www.w3.org/2000/svg"
   xmlns:sodipodi="http://sodipodi.sourceforge.net/DTD/sodipodi-0.dtd"
   xmlns:inkscape="http://www.inkscape.org/namespaces/inkscape"
   version="1.1"
   width="612"
   height="612"
   id="svg62"
   sodipodi:docname="WebAssembly_Logo_Inverted.svg"
   inkscape:version="1.0.2 (e86c870879, 2021-01-15)">
  <metadata
     id="metadata68">
    <rdf:RDF>
      <cc:Work
         rdf:about="">
        <dc:format>image/svg+xml</dc:format>
        <dc:type
           rdf:resource="http://purl.org/dc/dcmitype/StillImage" />
        <dc:title></dc:title>
      </cc:Work>
    </rdf:RDF>
  </metadata>
  <defs
     id="defs66" />
  <sodipodi:namedview
     pagecolor="#ffffff"
     bordercolor="#666666"
     borderopacity="1"
     objecttolerance="10"
     gridtolerance="10"
     guidetolerance="10"
     inkscape:pageopacity="0"
     inkscape:pageshadow="2"
     inkscape:window-width="1920"
     inkscape:window-height="1016"
     id="namedview64"
     showgrid="false"
     inkscape:zoom="1.2973856"
     inkscape:cx="157.62469"
     inkscape:cy="306"
     inkscape:window-x="0"
     inkscape:window-y="0"
     inkscape:window-maximized="1"
     inkscape:current-layer="svg62" />
  <!-- Block -->
  <path
     id="path58"
     d="M 0 0 L 0 612 L 612 612 L 612 0 L 376 0 L 376 3.3007812 C 376 42.060781 344.58008 73.470703 305.83008 73.470703 C 267.07008 73.470703 235.66016 42.050781 235.66016 3.3007812 L 235.66016 0 L 0 0 z M 142.16016 329.81055 L 182.7207 329.81055 L 210.41016 477.2793 L 210.91016 477.2793 L 244.18945 329.81055 L 282.13086 329.81055 L 312.18945 479.08984 L 312.7793 479.08984 L 344.33984 329.81055 L 384.11914 329.81055 L 332.42969 546.5 L 292.17969 546.5 L 262.36914 399.0293 L 261.58984 399.0293 L 229.67969 546.5 L 188.67969 546.5 L 142.16016 329.81055 z M 429.84961 329.81055 L 493.78906 329.81055 L 557.28906 546.5 L 515.44922 546.5 L 501.64062 498.2793 L 428.80078 498.2793 L 418.14062 546.5 L 377.39062 546.5 L 429.84961 329.81055 z M 454.18945 383.2207 L 436.5 462.7207 L 491.56055 462.7207 L 471.25 383.2207 L 454.18945 383.2207 z "
     style="fill:#ffffff;fill-opacity:1" />
  <!-- Letters -->
</svg>
